<mxfile host="app.diagrams.net" modified="2023-11-01T08:43:12.076Z" agent="Mozilla/5.0 (Macintosh; Intel Mac OS X 10_15_7) AppleWebKit/605.1.15 (KHTML, like Gecko) Version/17.0 Safari/605.1.15" etag="DV7lzppMwKIZmP8LHmvI" version="22.0.8" type="github">
  <diagram name="Page-1" id="0783ab3e-0a74-02c8-0abd-f7b4e66b4bec">
    <mxGraphModel dx="1122" dy="761" grid="1" gridSize="10" guides="1" tooltips="1" connect="1" arrows="1" fold="1" page="1" pageScale="1" pageWidth="850" pageHeight="1100" background="none" math="0" shadow="0">
      <root>
        <mxCell id="0" />
        <mxCell id="1" parent="0" />
        <mxCell id="1c1d494c118603dd-1" value="" style="swimlane;html=1;childLayout=stackLayout;startSize=20;rounded=0;shadow=0;comic=0;labelBackgroundColor=none;strokeWidth=1;fontFamily=Verdana;fontSize=12;align=center;" parent="1" vertex="1">
          <mxGeometry x="40" y="20" width="1000" height="1340" as="geometry">
            <mxRectangle x="40" y="20" width="50" height="40" as="alternateBounds" />
          </mxGeometry>
        </mxCell>
        <mxCell id="1c1d494c118603dd-2" value="Technician" style="swimlane;html=1;startSize=20;" parent="1c1d494c118603dd-1" vertex="1">
          <mxGeometry y="20" width="250" height="1320" as="geometry" />
        </mxCell>
        <mxCell id="60571a20871a0731-4" value="" style="ellipse;whiteSpace=wrap;html=1;rounded=0;shadow=0;comic=0;labelBackgroundColor=none;strokeWidth=1;fillColor=#000000;fontFamily=Verdana;fontSize=12;align=center;" parent="1c1d494c118603dd-2" vertex="1">
          <mxGeometry x="105" y="40" width="40" height="40" as="geometry" />
        </mxCell>
        <mxCell id="Mcc5gPNpuRrfqJERpfyI-61" value="Save availability in scheduling database&lt;br&gt;" style="rounded=1;whiteSpace=wrap;html=1;shadow=0;comic=0;labelBackgroundColor=none;strokeWidth=1;fontFamily=Verdana;fontSize=12;align=center;arcSize=50;" parent="1c1d494c118603dd-2" vertex="1">
          <mxGeometry x="75" y="140" width="135" height="40" as="geometry" />
        </mxCell>
        <mxCell id="5EP2-YG1-LwQF_9R7Ic3-52" value="" style="edgeStyle=orthogonalEdgeStyle;rounded=0;orthogonalLoop=1;jettySize=auto;html=1;" edge="1" parent="1c1d494c118603dd-2" source="Mcc5gPNpuRrfqJERpfyI-91" target="5EP2-YG1-LwQF_9R7Ic3-35">
          <mxGeometry relative="1" as="geometry" />
        </mxCell>
        <mxCell id="Mcc5gPNpuRrfqJERpfyI-91" value="Alerted of Upcoming appointment" style="rounded=1;whiteSpace=wrap;html=1;shadow=0;comic=0;labelBackgroundColor=none;strokeWidth=1;fontFamily=Verdana;fontSize=12;align=center;arcSize=50;" parent="1c1d494c118603dd-2" vertex="1">
          <mxGeometry x="40" y="740" width="132.5" height="30" as="geometry" />
        </mxCell>
        <mxCell id="5EP2-YG1-LwQF_9R7Ic3-36" value="Perform Audit" style="rounded=1;whiteSpace=wrap;html=1;shadow=0;comic=0;labelBackgroundColor=none;strokeWidth=1;fontFamily=Verdana;fontSize=12;align=center;arcSize=50;" vertex="1" parent="1c1d494c118603dd-2">
          <mxGeometry x="40" y="850" width="130" height="20" as="geometry" />
        </mxCell>
        <mxCell id="5EP2-YG1-LwQF_9R7Ic3-51" style="edgeStyle=orthogonalEdgeStyle;rounded=0;orthogonalLoop=1;jettySize=auto;html=1;exitX=0.5;exitY=1;exitDx=0;exitDy=0;entryX=0.5;entryY=0;entryDx=0;entryDy=0;" edge="1" parent="1c1d494c118603dd-2" source="5EP2-YG1-LwQF_9R7Ic3-35" target="5EP2-YG1-LwQF_9R7Ic3-36">
          <mxGeometry relative="1" as="geometry" />
        </mxCell>
        <mxCell id="5EP2-YG1-LwQF_9R7Ic3-35" value="Sign in to Scheduled appointment" style="rounded=1;whiteSpace=wrap;html=1;shadow=0;comic=0;labelBackgroundColor=none;strokeWidth=1;fontFamily=Verdana;fontSize=12;align=center;arcSize=50;" vertex="1" parent="1c1d494c118603dd-2">
          <mxGeometry x="40" y="790" width="132.5" height="40" as="geometry" />
        </mxCell>
        <mxCell id="5EP2-YG1-LwQF_9R7Ic3-109" value="" style="edgeStyle=orthogonalEdgeStyle;rounded=0;orthogonalLoop=1;jettySize=auto;html=1;" edge="1" parent="1c1d494c118603dd-2" source="5EP2-YG1-LwQF_9R7Ic3-69" target="5EP2-YG1-LwQF_9R7Ic3-108">
          <mxGeometry relative="1" as="geometry" />
        </mxCell>
        <mxCell id="5EP2-YG1-LwQF_9R7Ic3-114" style="edgeStyle=orthogonalEdgeStyle;rounded=0;orthogonalLoop=1;jettySize=auto;html=1;exitX=0.5;exitY=1;exitDx=0;exitDy=0;" edge="1" parent="1c1d494c118603dd-2" source="5EP2-YG1-LwQF_9R7Ic3-69" target="5EP2-YG1-LwQF_9R7Ic3-108">
          <mxGeometry relative="1" as="geometry" />
        </mxCell>
        <mxCell id="5EP2-YG1-LwQF_9R7Ic3-69" value="Complete Audit" style="rounded=1;whiteSpace=wrap;html=1;shadow=0;comic=0;labelBackgroundColor=none;strokeWidth=1;fontFamily=Verdana;fontSize=12;align=center;arcSize=50;" vertex="1" parent="1c1d494c118603dd-2">
          <mxGeometry x="58.75" y="1070" width="102.5" height="30" as="geometry" />
        </mxCell>
        <mxCell id="5EP2-YG1-LwQF_9R7Ic3-108" value="Sign Off" style="rounded=1;whiteSpace=wrap;html=1;shadow=0;comic=0;labelBackgroundColor=none;strokeWidth=1;fontFamily=Verdana;fontSize=12;align=center;arcSize=50;" vertex="1" parent="1c1d494c118603dd-2">
          <mxGeometry x="56.25" y="1120" width="107.5" height="20" as="geometry" />
        </mxCell>
        <mxCell id="1c1d494c118603dd-3" value="Homeowner&amp;nbsp;" style="swimlane;html=1;startSize=20;" parent="1c1d494c118603dd-1" vertex="1">
          <mxGeometry x="250" y="20" width="290" height="1320" as="geometry">
            <mxRectangle x="250" y="20" width="40" height="970" as="alternateBounds" />
          </mxGeometry>
        </mxCell>
        <mxCell id="60571a20871a0731-8" value="Press calendar button on application&lt;br&gt;" style="rounded=1;whiteSpace=wrap;html=1;shadow=0;comic=0;labelBackgroundColor=none;strokeWidth=1;fontFamily=Verdana;fontSize=12;align=center;arcSize=50;" parent="1c1d494c118603dd-3" vertex="1">
          <mxGeometry x="60" y="133.75" width="120" height="52.5" as="geometry" />
        </mxCell>
        <mxCell id="5EP2-YG1-LwQF_9R7Ic3-2" value="Display Calendar graphically" style="rounded=1;whiteSpace=wrap;html=1;shadow=0;comic=0;labelBackgroundColor=none;strokeWidth=1;fontFamily=Verdana;fontSize=12;align=center;arcSize=50;" vertex="1" parent="1c1d494c118603dd-3">
          <mxGeometry x="65" y="220" width="110" height="40" as="geometry" />
        </mxCell>
        <mxCell id="5EP2-YG1-LwQF_9R7Ic3-4" value="" style="endArrow=classic;html=1;rounded=0;entryX=0.5;entryY=0;entryDx=0;entryDy=0;exitX=0.5;exitY=1;exitDx=0;exitDy=0;" edge="1" parent="1c1d494c118603dd-3" source="60571a20871a0731-8" target="5EP2-YG1-LwQF_9R7Ic3-2">
          <mxGeometry width="50" height="50" relative="1" as="geometry">
            <mxPoint x="100" y="260" as="sourcePoint" />
            <mxPoint x="150" y="210" as="targetPoint" />
          </mxGeometry>
        </mxCell>
        <mxCell id="5EP2-YG1-LwQF_9R7Ic3-8" value="Is appointment time valid?" style="shape=hexagon;perimeter=hexagonPerimeter2;whiteSpace=wrap;html=1;fixedSize=1;" vertex="1" parent="1c1d494c118603dd-3">
          <mxGeometry x="40" y="290" width="160" height="40" as="geometry" />
        </mxCell>
        <mxCell id="5EP2-YG1-LwQF_9R7Ic3-9" value="" style="endArrow=classic;html=1;rounded=0;entryX=0.5;entryY=0;entryDx=0;entryDy=0;exitX=0.5;exitY=1;exitDx=0;exitDy=0;" edge="1" parent="1c1d494c118603dd-3" source="5EP2-YG1-LwQF_9R7Ic3-2" target="5EP2-YG1-LwQF_9R7Ic3-8">
          <mxGeometry width="50" height="50" relative="1" as="geometry">
            <mxPoint x="95" y="310" as="sourcePoint" />
            <mxPoint x="140" y="260" as="targetPoint" />
          </mxGeometry>
        </mxCell>
        <mxCell id="5EP2-YG1-LwQF_9R7Ic3-10" value="Schedule appointment" style="rounded=1;whiteSpace=wrap;html=1;shadow=0;comic=0;labelBackgroundColor=none;strokeWidth=1;fontFamily=Verdana;fontSize=12;align=center;arcSize=50;" vertex="1" parent="1c1d494c118603dd-3">
          <mxGeometry y="350" width="100" height="30" as="geometry" />
        </mxCell>
        <mxCell id="5EP2-YG1-LwQF_9R7Ic3-11" value="Display error message" style="rounded=1;whiteSpace=wrap;html=1;shadow=0;comic=0;labelBackgroundColor=none;strokeWidth=1;fontFamily=Verdana;fontSize=12;align=center;arcSize=50;" vertex="1" parent="1c1d494c118603dd-3">
          <mxGeometry x="150" y="350" width="100" height="30" as="geometry" />
        </mxCell>
        <mxCell id="5EP2-YG1-LwQF_9R7Ic3-12" value="No&lt;br&gt;" style="endArrow=classic;html=1;rounded=0;exitX=1;exitY=0.5;exitDx=0;exitDy=0;entryX=0.662;entryY=-0.131;entryDx=0;entryDy=0;entryPerimeter=0;" edge="1" parent="1c1d494c118603dd-3" source="5EP2-YG1-LwQF_9R7Ic3-8" target="5EP2-YG1-LwQF_9R7Ic3-11">
          <mxGeometry width="50" height="50" relative="1" as="geometry">
            <mxPoint x="190" y="335" as="sourcePoint" />
            <mxPoint x="240" y="285" as="targetPoint" />
            <Array as="points">
              <mxPoint x="216" y="310" />
            </Array>
          </mxGeometry>
        </mxCell>
        <mxCell id="5EP2-YG1-LwQF_9R7Ic3-13" value="Yes&lt;br&gt;" style="endArrow=classic;html=1;rounded=0;exitX=0;exitY=0.5;exitDx=0;exitDy=0;" edge="1" parent="1c1d494c118603dd-3" source="5EP2-YG1-LwQF_9R7Ic3-8">
          <mxGeometry width="50" height="50" relative="1" as="geometry">
            <mxPoint x="10" y="310" as="sourcePoint" />
            <mxPoint x="20" y="340" as="targetPoint" />
            <Array as="points">
              <mxPoint x="20" y="310" />
            </Array>
          </mxGeometry>
        </mxCell>
        <mxCell id="Mcc5gPNpuRrfqJERpfyI-78" value="" style="html=1;whiteSpace=wrap;aspect=fixed;shape=isoRectangle;" parent="1c1d494c118603dd-3" vertex="1">
          <mxGeometry x="102.5" y="410" width="50" height="30" as="geometry" />
        </mxCell>
        <mxCell id="5EP2-YG1-LwQF_9R7Ic3-24" value="" style="endArrow=classic;html=1;rounded=0;entryX=0.086;entryY=0.457;entryDx=0;entryDy=0;entryPerimeter=0;exitX=0.609;exitY=1.084;exitDx=0;exitDy=0;exitPerimeter=0;" edge="1" parent="1c1d494c118603dd-3" source="5EP2-YG1-LwQF_9R7Ic3-10" target="Mcc5gPNpuRrfqJERpfyI-78">
          <mxGeometry width="50" height="50" relative="1" as="geometry">
            <mxPoint x="60" y="390" as="sourcePoint" />
            <mxPoint x="90" y="390" as="targetPoint" />
            <Array as="points">
              <mxPoint x="60" y="424" />
            </Array>
          </mxGeometry>
        </mxCell>
        <mxCell id="5EP2-YG1-LwQF_9R7Ic3-25" value="&lt;font style=&quot;font-size: 11px;&quot;&gt;choose updated &lt;br&gt;appointment time&lt;/font&gt;" style="endArrow=classic;html=1;rounded=0;exitX=0.5;exitY=1;exitDx=0;exitDy=0;entryX=0.981;entryY=0.496;entryDx=0;entryDy=0;entryPerimeter=0;" edge="1" parent="1c1d494c118603dd-3" source="5EP2-YG1-LwQF_9R7Ic3-11" target="Mcc5gPNpuRrfqJERpfyI-78">
          <mxGeometry x="-0.1439" y="20" width="50" height="50" relative="1" as="geometry">
            <mxPoint x="190" y="380" as="sourcePoint" />
            <mxPoint x="247" y="424" as="targetPoint" />
            <Array as="points">
              <mxPoint x="200" y="425" />
            </Array>
            <mxPoint as="offset" />
          </mxGeometry>
        </mxCell>
        <mxCell id="5EP2-YG1-LwQF_9R7Ic3-110" value="" style="endArrow=classic;html=1;rounded=0;exitX=0.486;exitY=1.084;exitDx=0;exitDy=0;exitPerimeter=0;entryX=0.5;entryY=0;entryDx=0;entryDy=0;" edge="1" parent="1c1d494c118603dd-3" target="5EP2-YG1-LwQF_9R7Ic3-61">
          <mxGeometry width="50" height="50" relative="1" as="geometry">
            <mxPoint x="-142.49999999999955" y="870" as="sourcePoint" />
            <mxPoint x="432.5000000000009" y="918" as="targetPoint" />
            <Array as="points">
              <mxPoint x="-142.49999999999955" y="897" />
              <mxPoint x="0.5000000000004547" y="897" />
              <mxPoint x="645" y="897" />
            </Array>
          </mxGeometry>
        </mxCell>
        <mxCell id="5EP2-YG1-LwQF_9R7Ic3-120" value="" style="edgeStyle=orthogonalEdgeStyle;rounded=0;orthogonalLoop=1;jettySize=auto;html=1;" edge="1" parent="1c1d494c118603dd-3" source="5EP2-YG1-LwQF_9R7Ic3-116" target="5EP2-YG1-LwQF_9R7Ic3-119">
          <mxGeometry relative="1" as="geometry" />
        </mxCell>
        <mxCell id="5EP2-YG1-LwQF_9R7Ic3-116" value="Display Final Report&lt;br&gt;" style="rounded=1;whiteSpace=wrap;html=1;shadow=0;comic=0;labelBackgroundColor=none;strokeWidth=1;fontFamily=Verdana;fontSize=12;align=center;arcSize=50;" vertex="1" parent="1c1d494c118603dd-3">
          <mxGeometry x="91.25" y="1190" width="107.5" height="40" as="geometry" />
        </mxCell>
        <mxCell id="5EP2-YG1-LwQF_9R7Ic3-118" value="" style="endArrow=classic;html=1;rounded=0;exitX=0.486;exitY=1.084;exitDx=0;exitDy=0;exitPerimeter=0;entryX=0.5;entryY=0;entryDx=0;entryDy=0;" edge="1" parent="1c1d494c118603dd-3" target="5EP2-YG1-LwQF_9R7Ic3-116">
          <mxGeometry width="50" height="50" relative="1" as="geometry">
            <mxPoint x="-139.99999999999955" y="1140" as="sourcePoint" />
            <mxPoint x="647.5" y="1190" as="targetPoint" />
            <Array as="points">
              <mxPoint x="-139.99999999999955" y="1167" />
              <mxPoint x="3.0000000000004547" y="1167" />
              <mxPoint x="145" y="1167" />
            </Array>
          </mxGeometry>
        </mxCell>
        <mxCell id="5EP2-YG1-LwQF_9R7Ic3-119" value="" style="ellipse;html=1;shape=endState;fillColor=#000000;strokeColor=#ff0000;" vertex="1" parent="1c1d494c118603dd-3">
          <mxGeometry x="130" y="1270" width="30" height="30" as="geometry" />
        </mxCell>
        <mxCell id="1c1d494c118603dd-4" value="Scheduling Service" style="swimlane;html=1;startSize=20;" parent="1c1d494c118603dd-1" vertex="1">
          <mxGeometry x="540" y="20" width="250" height="1320" as="geometry" />
        </mxCell>
        <mxCell id="5EP2-YG1-LwQF_9R7Ic3-29" value="" style="edgeStyle=orthogonalEdgeStyle;rounded=0;orthogonalLoop=1;jettySize=auto;html=1;" edge="1" parent="1c1d494c118603dd-4" source="Mcc5gPNpuRrfqJERpfyI-88" target="Mcc5gPNpuRrfqJERpfyI-79">
          <mxGeometry relative="1" as="geometry" />
        </mxCell>
        <mxCell id="Mcc5gPNpuRrfqJERpfyI-88" value="Save new appointment date in scheduling database" style="rounded=1;whiteSpace=wrap;html=1;shadow=0;comic=0;labelBackgroundColor=none;strokeWidth=1;fontFamily=Verdana;fontSize=12;align=center;arcSize=50;" parent="1c1d494c118603dd-4" vertex="1">
          <mxGeometry x="50" y="580" width="160" height="50" as="geometry" />
        </mxCell>
        <mxCell id="Mcc5gPNpuRrfqJERpfyI-85" value="Return all information for calendar" style="rounded=1;whiteSpace=wrap;html=1;shadow=0;comic=0;labelBackgroundColor=none;strokeWidth=1;fontFamily=Verdana;fontSize=12;align=center;arcSize=50;" parent="1c1d494c118603dd-4" vertex="1">
          <mxGeometry x="61.25" y="500" width="127.49" height="50" as="geometry" />
        </mxCell>
        <mxCell id="Mcc5gPNpuRrfqJERpfyI-79" value="&lt;span style=&quot;font-weight: normal;&quot;&gt;Send appointment status to UI&lt;/span&gt;" style="rounded=1;whiteSpace=wrap;html=1;shadow=0;comic=0;labelBackgroundColor=none;strokeWidth=1;fontFamily=Verdana;fontSize=12;align=center;arcSize=50;fontStyle=1" parent="1c1d494c118603dd-4" vertex="1">
          <mxGeometry x="65" y="650" width="130" height="40" as="geometry" />
        </mxCell>
        <mxCell id="5EP2-YG1-LwQF_9R7Ic3-27" value="" style="endArrow=classic;html=1;rounded=0;exitX=0.5;exitY=1;exitDx=0;exitDy=0;entryX=0.454;entryY=0.004;entryDx=0;entryDy=0;entryPerimeter=0;" edge="1" parent="1c1d494c118603dd-4" source="Mcc5gPNpuRrfqJERpfyI-85" target="Mcc5gPNpuRrfqJERpfyI-88">
          <mxGeometry width="50" height="50" relative="1" as="geometry">
            <mxPoint x="120" y="500" as="sourcePoint" />
            <mxPoint x="125" y="530" as="targetPoint" />
          </mxGeometry>
        </mxCell>
        <mxCell id="5EP2-YG1-LwQF_9R7Ic3-34" value="" style="endArrow=classic;html=1;rounded=0;exitX=0.486;exitY=1.084;exitDx=0;exitDy=0;exitPerimeter=0;entryX=0.447;entryY=-0.069;entryDx=0;entryDy=0;entryPerimeter=0;" edge="1" parent="1c1d494c118603dd-4" target="Mcc5gPNpuRrfqJERpfyI-91">
          <mxGeometry width="50" height="50" relative="1" as="geometry">
            <mxPoint x="134.00000000000045" y="690" as="sourcePoint" />
            <mxPoint x="-139.99999999999955" y="745" as="targetPoint" />
            <Array as="points">
              <mxPoint x="134.00000000000045" y="717" />
              <mxPoint x="-8.999999999999545" y="717" />
              <mxPoint x="-440" y="717" />
            </Array>
          </mxGeometry>
        </mxCell>
        <mxCell id="5EP2-YG1-LwQF_9R7Ic3-111" value="" style="endArrow=classic;html=1;rounded=0;exitX=0.486;exitY=1.084;exitDx=0;exitDy=0;exitPerimeter=0;entryX=0.5;entryY=0;entryDx=0;entryDy=0;" edge="1" parent="1c1d494c118603dd-4" target="5EP2-YG1-LwQF_9R7Ic3-69">
          <mxGeometry width="50" height="50" relative="1" as="geometry">
            <mxPoint x="355.00000000000045" y="1020" as="sourcePoint" />
            <mxPoint x="-220" y="1068" as="targetPoint" />
            <Array as="points">
              <mxPoint x="355.00000000000045" y="1047" />
              <mxPoint x="212.00000000000045" y="1047" />
              <mxPoint x="-430" y="1050" />
            </Array>
          </mxGeometry>
        </mxCell>
        <mxCell id="1c1d494c118603dd-27" style="edgeStyle=orthogonalEdgeStyle;rounded=0;html=1;labelBackgroundColor=none;startArrow=none;startFill=0;startSize=5;endArrow=classicThin;endFill=1;endSize=5;jettySize=auto;orthogonalLoop=1;strokeWidth=1;fontFamily=Verdana;fontSize=12" parent="1c1d494c118603dd-1" source="60571a20871a0731-4" edge="1">
          <mxGeometry relative="1" as="geometry">
            <mxPoint x="125" y="160" as="targetPoint" />
          </mxGeometry>
        </mxCell>
        <mxCell id="Mcc5gPNpuRrfqJERpfyI-60" value="Input availability into calendar UI" style="edgeLabel;html=1;align=center;verticalAlign=middle;resizable=0;points=[];" parent="1c1d494c118603dd-27" vertex="1" connectable="0">
          <mxGeometry x="0.029" y="1" relative="1" as="geometry">
            <mxPoint as="offset" />
          </mxGeometry>
        </mxCell>
        <mxCell id="Mcc5gPNpuRrfqJERpfyI-62" style="edgeStyle=orthogonalEdgeStyle;rounded=0;orthogonalLoop=1;jettySize=auto;html=1;entryX=0;entryY=0.5;entryDx=0;entryDy=0;" parent="1c1d494c118603dd-1" source="Mcc5gPNpuRrfqJERpfyI-61" target="60571a20871a0731-8" edge="1">
          <mxGeometry relative="1" as="geometry" />
        </mxCell>
        <mxCell id="5EP2-YG1-LwQF_9R7Ic3-31" value="" style="endArrow=classic;html=1;rounded=0;exitX=0.486;exitY=1.084;exitDx=0;exitDy=0;exitPerimeter=0;entryX=0.39;entryY=-0.044;entryDx=0;entryDy=0;entryPerimeter=0;" edge="1" parent="1c1d494c118603dd-1" source="Mcc5gPNpuRrfqJERpfyI-78" target="Mcc5gPNpuRrfqJERpfyI-85">
          <mxGeometry width="50" height="50" relative="1" as="geometry">
            <mxPoint x="490" y="580" as="sourcePoint" />
            <mxPoint x="670" y="490" as="targetPoint" />
            <Array as="points">
              <mxPoint x="377" y="490" />
              <mxPoint x="520" y="490" />
              <mxPoint x="650" y="490" />
            </Array>
          </mxGeometry>
        </mxCell>
        <mxCell id="5EP2-YG1-LwQF_9R7Ic3-121" value="Desirable time chosen" style="edgeLabel;html=1;align=center;verticalAlign=middle;resizable=0;points=[];" vertex="1" connectable="0" parent="5EP2-YG1-LwQF_9R7Ic3-31">
          <mxGeometry x="-0.5183" y="-5" relative="1" as="geometry">
            <mxPoint x="42" y="-5" as="offset" />
          </mxGeometry>
        </mxCell>
        <mxCell id="Mcc5gPNpuRrfqJERpfyI-30" value="Analytics Service" style="swimlane;html=1;startSize=20;" parent="1c1d494c118603dd-1" vertex="1">
          <mxGeometry x="790" y="20" width="210" height="1320" as="geometry" />
        </mxCell>
        <mxCell id="5EP2-YG1-LwQF_9R7Ic3-64" value="" style="edgeStyle=orthogonalEdgeStyle;rounded=0;orthogonalLoop=1;jettySize=auto;html=1;entryX=0.5;entryY=0;entryDx=0;entryDy=0;" edge="1" parent="Mcc5gPNpuRrfqJERpfyI-30" source="5EP2-YG1-LwQF_9R7Ic3-61" target="5EP2-YG1-LwQF_9R7Ic3-62">
          <mxGeometry relative="1" as="geometry" />
        </mxCell>
        <mxCell id="5EP2-YG1-LwQF_9R7Ic3-61" value="Generate audit checklist" style="rounded=1;whiteSpace=wrap;html=1;shadow=0;comic=0;labelBackgroundColor=none;strokeWidth=1;fontFamily=Verdana;fontSize=12;align=center;arcSize=50;" vertex="1" parent="Mcc5gPNpuRrfqJERpfyI-30">
          <mxGeometry x="40" y="920" width="130" height="40" as="geometry" />
        </mxCell>
        <mxCell id="5EP2-YG1-LwQF_9R7Ic3-62" value="Return Audit results if any error" style="rounded=1;whiteSpace=wrap;html=1;shadow=0;comic=0;labelBackgroundColor=none;strokeWidth=1;fontFamily=Verdana;fontSize=12;align=center;arcSize=50;" vertex="1" parent="Mcc5gPNpuRrfqJERpfyI-30">
          <mxGeometry x="40" y="980" width="130" height="40" as="geometry" />
        </mxCell>
      </root>
    </mxGraphModel>
  </diagram>
</mxfile>
